<?xml version="1.0" encoding="UTF-8"?>
<!DOCTYPE svg PUBLIC "-//W3C//DTD SVG 1.0//EN" "http://www.w3.org/TR/2001/REC-SVG-20010904/DTD/svg10.dtd">
<!-- Creator: CorelDRAW 2021 (64-Bit) -->
<svg xmlns="http://www.w3.org/2000/svg" xml:space="preserve" width="1355px" height="357px" version="1.0" style="shape-rendering:geometricPrecision; text-rendering:geometricPrecision; image-rendering:optimizeQuality; fill-rule:evenodd; clip-rule:evenodd"
viewBox="0 0 1263.68 333.2"
 xmlns:xlink="http://www.w3.org/1999/xlink"
 xmlns:xodm="http://www.corel.com/coreldraw/odm/2003">
 <defs>
  <style type="text/css">
   <![CDATA[
    .fil1 {fill:#2B2A29;fill-rule:nonzero}
    .fil0 {fill:black;fill-rule:nonzero}
   ]]>
  </style>
 </defs>
 <g id="Layer_x0020_1">
  <metadata id="CorelCorpID_0Corel-Layer"/>
  <g id="_1596209475584">
   <g>
    <g>
     <path class="fil0" d="M393.57 150.28c2.9,0 5.25,-2.35 5.25,-5.25l0 -50.43c0,-19.3 -15.71,-35.01 -35.01,-35.01l-10.82 0 0 -6.95c0,-7.29 -5.93,-13.22 -13.22,-13.22l-9.36 0c-7.29,0 -13.22,5.93 -13.22,13.22l0 6.95 -26.74 0 0 -6.95c0,-6.18 -4.27,-11.37 -10.01,-12.81l0 -11.63c0,-15.55 -12.65,-28.2 -28.2,-28.2l-21.01 0c-2.9,0 -5.25,2.35 -5.25,5.25 0,2.9 2.35,5.25 5.25,5.25l21.01 0c9.76,0 17.7,7.94 17.7,17.7l0 11.22 -10.5 0 0 -11.22c0,-3.97 -3.23,-7.2 -7.2,-7.2l-63.69 0c-3.97,0 -7.19,3.23 -7.19,7.2l0 11.22 -10.5 0 0 -11.22c0,-9.76 7.93,-17.7 17.69,-17.7l20.31 0c2.9,0 5.25,-2.35 5.25,-5.25 0,-2.9 -2.35,-5.25 -5.25,-5.25l-20.31 0c-15.54,0 -28.2,12.65 -28.2,28.2l0 11.63c-5.74,1.44 -10.01,6.63 -10.01,12.82l0 6.94 -26.74 0 0 -6.94c0,-7.3 -5.93,-13.23 -13.22,-13.23l-9.35 0c-7.29,0 -13.23,5.93 -13.23,13.23l0 6.94 -11.52 0c-19.3,0 -35,15.71 -35,35.01l0 200.57c0,19.3 15.7,35.01 35,35.01l287.53 0c19.3,0 35.01,-15.71 35.01,-35.01l0 -127.76c0,-2.9 -2.35,-5.25 -5.25,-5.25 -2.9,0 -5.25,2.35 -5.25,5.25l0 127.76c0,13.51 -11,24.5 -24.51,24.5l-36.65 0 0 -114.47 1.12 0c13.61,0 24.67,-11.07 24.67,-24.67l0 -25.89c0,-13.6 -11.06,-24.67 -24.67,-24.67l-1.12 0 0 -59.87 36.65 0c13.51,0 24.51,10.99 24.51,24.5l0 50.43c0,2.9 2.35,5.25 5.25,5.25l0 0zm-100.51 -20.31c-13.6,0 -24.67,11.07 -24.67,24.67l0 25.89c0,13.6 11.07,24.67 24.67,24.67l1.12 0 0 114.47 -147.57 0 0 -37.7 30.84 -10.97c5.46,-1.94 8.32,-7.96 6.37,-13.42l-10.59 -29.78c-1.94,-5.46 -7.97,-8.32 -13.43,-6.38l-13.19 4.69 0 -20.91 1.12 0c13.6,0 24.67,-11.07 24.67,-24.67l0 -25.89c0,-13.6 -11.07,-24.67 -24.67,-24.67l-1.12 0 0 -59.87 147.57 0 0 59.87 -1.12 0 0 0zm-179.43 152.59l-16.73 5.95 -10.59 -29.79 27.32 -9.72 0 33.56zm-1.12 -87.86c-7.81,0 -14.17,-6.36 -14.17,-14.17l0 -25.89c0,-7.81 6.36,-14.17 14.17,-14.17l35.22 0c7.81,0 14.17,6.36 14.17,14.17l0 25.89c0,7.81 -6.36,14.17 -14.17,14.17l-35.22 0zm34.1 42.56l16.73 -5.94 10.59 29.79 -27.32 9.72 0 -33.57zm102.81 -177.67l0 -6.94c0,-1.51 1.22,-2.73 2.73,-2.73l25.08 0c1.5,0 2.72,1.22 2.72,2.73l0 6.94 -30.53 0zm-0.49 -28.09l0 8.33c-5.74,1.44 -10.01,6.63 -10.01,12.82l0 6.94 -37.05 0 0 -6.94c0,-6.19 -4.27,-11.38 -10.01,-12.82l0 -8.33 57.07 0zm-88.09 21.15c0,-1.51 1.22,-2.73 2.73,-2.73l25.08 0c1.5,0 2.72,1.22 2.72,2.73l0 6.94 -30.53 0 0 -6.94zm-62.54 0c0,-1.51 1.23,-2.73 2.73,-2.73l9.35 0c1.5,0 2.73,1.22 2.73,2.73l0 6.94 -14.81 0 0 -6.94zm-46.52 242.52l0 -200.57c0,-13.51 10.99,-24.5 24.5,-24.5l16.77 0 -31.2 0 0 18.63c0,2.9 2.35,5.25 5.25,5.25 2.9,0 5.25,-2.35 5.25,-5.25l0 -18.63 11.98 0 0 59.87 -11.98 0 0 -18.86c0,-2.9 -2.35,-5.25 -5.25,-5.25 -2.9,0 -5.25,2.35 -5.25,5.25l0 18.86 -1.12 0c-13.6,0 -24.67,11.07 -24.67,24.67l0 25.89c0,13.6 11.07,24.67 24.67,24.67l1.12 0 0 32.65 -30.83 10.97c-2.65,0.94 -4.77,2.86 -5.97,5.39 -1.21,2.54 -1.35,5.39 -0.41,8.04l10.6 29.78c0.94,2.64 2.85,4.76 5.39,5.97 1.43,0.68 2.96,1.02 4.5,1.02 1.19,0 2.38,-0.21 3.53,-0.62l13.19 -4.69 0 25.96 -37.35 0c-13.51,0 -24.5,-10.99 -24.5,-24.5l51.78 0zm72.35 24.5l0 -114.47 11.98 0 0 114.47 -11.98 0zm192.53 0l-11.98 0 0 -114.47 11.98 0 0 114.47zm25.79 -165.03l0 25.89c0,7.81 -6.36,14.17 -14.17,14.17l-35.22 0c-7.81,0 -14.17,-6.36 -14.17,-14.17l0 -25.89c0,-7.82 6.36,-14.17 14.17,-14.17l35.22 0c7.82,0 14.17,6.36 14.17,14.17zm-37.77 -24.67l0 -59.87 11.98 0 0 59.87 -11.98 0zm23.01 -70.38l0 -6.94c0,-1.51 1.22,-2.73 2.72,-2.73l9.36 0c1.5,0 2.72,1.22 2.72,2.73l0 6.94 -14.8 0z"/>
     <path class="fil0" d="M151.4 178.94l0 -22.72c0,-2.9 -2.35,-5.25 -5.25,-5.25l-32.06 0c-2.9,0 -5.25,2.35 -5.25,5.25l0 22.73c0,2.89 2.35,5.24 5.25,5.24l32.06 0c2.9,0 5.25,-2.35 5.25,-5.25zm-10.5 -5.25l-21.56 0 0 -12.22 21.56 0 0 12.22z"/>
     <path class="fil0" d="M289.4 156.22l0 22.73c0,2.89 2.35,5.24 5.25,5.24l32.05 0c2.9,0 5.25,-2.35 5.25,-5.25l0 -22.72c0,-2.9 -2.35,-5.25 -5.25,-5.25l-32.05 0c-2.9,0 -5.25,2.35 -5.25,5.25zm10.5 5.25l21.55 0 0 12.22 -21.55 0 0 -12.22z"/>
     <path class="fil0" d="M263.02 120.6c0.35,-2.84 -0.93,-5.58 -3.33,-7.15l-37.88 -24.75c-1.89,-1.23 -4.21,-1.55 -6.37,-0.86 -2.15,0.69 -3.86,2.29 -4.68,4.4l0 0 -17.26 44.19c-1.08,2.76 -0.47,5.79 1.59,7.92 1.44,1.49 3.36,2.29 5.34,2.29 0.83,0 1.68,-0.14 2.51,-0.44l55.15 -19.44c2.7,-0.96 4.59,-3.31 4.93,-6.16l0 0zm-57.34 13.5l13.51 -34.57 29.63 19.36 -43.14 15.21z"/>
     <path class="fil0" d="M217.31 265.78c0,17.17 13.96,31.14 31.13,31.14 17.17,0 31.14,-13.97 31.14,-31.14 0,-17.17 -13.97,-31.13 -31.14,-31.13 -17.17,0 -31.13,13.96 -31.13,31.13zm51.77 0c0,11.38 -9.26,20.64 -20.64,20.64 -11.38,0 -20.64,-9.26 -20.64,-20.64 0,-11.38 9.26,-20.63 20.64,-20.63 11.38,0 20.64,9.25 20.64,20.63z"/>
    </g>
   </g>
   <path class="fil1" d="M542.72 78.86l-27.2 0 0 77.81 -21.52 0 0 -77.81 -27.03 0 0 -17.47 75.75 0 0 17.47zm99.03 77.81l-21.53 0 0 -38.8 -39.46 0 0 38.8 -21.48 0 0 -95.28 21.48 0 0 38.01 39.46 0 0 -38.01 21.53 0 0 95.28zm82.7 0l-57.15 0 0 -95.28 54.95 0 0 17.47 -33.48 0 0 21.2 31.17 0 0 17.4 -31.17 0 0 21.79 35.68 0 0 17.42zm144.11 0l-23.39 0 -6.78 -21.2 -33.88 0 -6.71 21.2 -23.27 0 34.7 -95.28 25.44 0 33.89 95.28zm-35.09 -37.67l-10.23 -32.02c-0.75,-2.41 -1.29,-5.27 -1.61,-8.58l-0.52 0c-0.23,2.79 -0.77,5.56 -1.66,8.3l-10.36 32.3 24.38 0zm130.67 37.67l-24.65 0 -14.81 -24.52c-1.12,-1.86 -2.18,-3.51 -3.2,-4.99 -1.02,-1.45 -2.04,-2.69 -3.09,-3.74 -1.04,-1.04 -2.13,-1.83 -3.26,-2.4 -1.13,-0.55 -2.36,-0.82 -3.67,-0.82l-5.79 0 0 36.47 -21.48 0 0 -95.28 34.02 0c23.14,0 34.7,8.64 34.7,25.9 0,3.34 -0.52,6.4 -1.54,9.21 -1.02,2.81 -2.45,5.35 -4.31,7.62 -1.86,2.25 -4.1,4.2 -6.73,5.83 -2.66,1.66 -5.58,2.93 -8.83,3.86l0 0.27c1.43,0.45 2.79,1.16 4.13,2.15 1.34,1 2.61,2.16 3.86,3.5 1.24,1.33 2.42,2.76 3.56,4.28 1.13,1.52 2.15,3.02 3.08,4.49l18.01 28.17zm-58.47 -79.2l0 26.52 9.3 0c4.61,0 8.3,-1.34 11.09,-4 2.84,-2.69 4.27,-6.05 4.27,-10.02 0,-8.35 -4.99,-12.5 -14.97,-12.5l-9.69 0zm135.32 1.39l-27.19 0 0 77.81 -21.53 0 0 -77.81 -27.03 0 0 -17.47 75.75 0 0 17.47zm98.14 79.47c-13.66,0 -24.77,-4.45 -33.37,-13.32 -8.59,-8.89 -12.88,-20.45 -12.88,-34.72 0,-15.06 4.35,-27.24 13.09,-36.54 8.73,-9.3 20.27,-13.97 34.68,-13.97 13.6,0 24.6,4.47 32.99,13.36 8.39,8.91 12.59,20.66 12.59,35.22 0,14.97 -4.35,27.06 -13.06,36.22 -8.69,9.17 -20.05,13.75 -34.04,13.75zm0.93 -80.06c-7.53,0 -13.52,2.81 -17.95,8.48 -4.42,5.65 -6.64,13.11 -6.64,22.41 0,9.43 2.22,16.89 6.64,22.41 4.43,5.48 10.23,8.23 17.4,8.23 7.42,0 13.27,-2.68 17.62,-8.01 4.33,-5.35 6.51,-12.74 6.51,-22.23 0,-9.88 -2.11,-17.57 -6.3,-23.06 -4.22,-5.49 -9.98,-8.23 -17.28,-8.23zm120.82 0.59l-33.61 0 0 23.4 30.89 0 0 17.4 -30.89 0 0 37.01 -21.48 0 0 -95.28 55.09 0 0 17.47z"/>
   <path class="fil1" d="M542.72 253.74l-27.2 0 0 77.81 -21.52 0 0 -77.81 -27.03 0 0 -17.47 75.75 0 0 17.47zm92.76 77.81l-24.66 0 -14.8 -24.52c-1.12,-1.86 -2.18,-3.51 -3.2,-4.99 -1.02,-1.45 -2.04,-2.7 -3.09,-3.74 -1.04,-1.04 -2.13,-1.83 -3.26,-2.4 -1.14,-0.55 -2.36,-0.82 -3.68,-0.82l-5.78 0 0 36.47 -21.48 0 0 -95.28 34.02 0c23.13,0 34.7,8.64 34.7,25.9 0,3.34 -0.52,6.4 -1.54,9.21 -1.02,2.81 -2.45,5.35 -4.31,7.62 -1.86,2.25 -4.11,4.2 -6.74,5.83 -2.65,1.66 -5.57,2.93 -8.82,3.85l0 0.28c1.43,0.45 2.79,1.15 4.13,2.15 1.34,1 2.61,2.16 3.85,3.49 1.25,1.34 2.43,2.77 3.56,4.29 1.14,1.52 2.16,3.02 3.09,4.49l18.01 28.17zm-58.47 -79.2l0 26.51 9.3 0c4.6,0 8.3,-1.33 11.09,-3.99 2.83,-2.7 4.26,-6.05 4.26,-10.02 0,-8.35 -4.99,-12.5 -14.97,-12.5l-9.68 0zm151.16 79.2l-23.38 0 -6.78 -21.21 -33.89 0 -6.71 21.21 -23.27 0 34.7 -95.28 25.45 0 33.88 95.28zm-35.08 -37.67l-10.23 -32.03c-0.75,-2.4 -1.3,-5.26 -1.61,-8.57l-0.53 0c-0.22,2.79 -0.77,5.56 -1.65,8.3l-10.37 32.3 24.39 0zm118.82 -57.61l-32.85 95.28 -24.31 0 -32.43 -95.28 23.13 0 19.87 66.32c1.07,3.58 1.7,6.73 1.93,9.5l0.38 0c0.32,-2.97 1,-6.24 2.07,-9.77l19.73 -66.05 22.48 0zm68.55 95.28l-57.15 0 0 -95.28 54.96 0 0 17.47 -33.48 0 0 21.2 31.16 0 0 17.4 -31.16 0 0 21.79 35.67 0 0 17.42zm72.01 0l-56.74 0 0 -95.28 21.48 0 0 77.86 35.26 0 0 17.42zm69.56 0l-56.74 0 0 -95.28 21.47 0 0 77.86 35.27 0 0 17.42zm34.29 0l-21.47 0 0 -95.28 21.47 0 0 95.28zm107.37 0l-21.66 0 -39.28 -59.87c-2.29,-3.5 -3.9,-6.13 -4.79,-7.9l-0.25 0c0.34,3.36 0.53,8.51 0.53,15.4l0 52.37 -20.28 0 0 -95.28 23.13 0 37.81 57.99c1.72,2.63 3.31,5.22 4.79,7.78l0.27 0c-0.37,-2.2 -0.55,-6.57 -0.55,-13.08l0 -52.69 20.28 0 0 95.28zm99.99 -6.37c-9.29,5.35 -20.86,8.02 -34.7,8.02 -15.31,0 -27.39,-4.24 -36.24,-12.72 -8.82,-8.48 -13.24,-20.16 -13.24,-35.04 0,-14.97 4.83,-27.17 14.49,-36.6 9.64,-9.46 22.5,-14.18 38.53,-14.18 10.09,0 19.01,1.41 26.7,4.2l0 20.14c-7.35,-4.27 -16.33,-6.38 -26.97,-6.38 -8.91,0 -16.15,2.89 -21.75,8.67 -5.63,5.78 -8.41,13.49 -8.41,23.15 0,9.78 2.51,17.35 7.53,22.73 5.03,5.35 11.81,8.03 20.36,8.03 5.15,0 9.23,-0.73 12.23,-2.18l0 -18.62 -19.06 0 0 -17.15 40.53 0 0 47.93z"/>
  </g>
 </g>
</svg>
